# xmcd
#
# Track frame offsets: 
#        150
#        14416
#        25628
#        37977
#        52473
#        63107
#        75776
#        88124
#        100543
#        113602
#        125498
#        139858
#
# Disc length: 2019 seconds
#
# Revision: 0
# Processed by: cddbd v1.5.2PL0 Copyright (c) Steve Scherf et al.
# Submitted via: ExactAudioCopy v0.99pb4
#
DISCID=8c07e10c
DTITLE=Dean Martin - Heart-Touching Treasury
DYEAR=1984
DGENRE=
TTITLE0=My Heart Cries For You
TTITLE1=Born To Lose
TTITLE2=I Can't Help It If I'm Still In Love With You
TTITLE3=Release Me
TTITLE4=Welcome To My World
TTITLE5=You've Still Got a Place In My Heart
TTITLE6=In the Misty Moonlight
TTITLE7=Take These Chains From My Heart
TTITLE8=The Door Is Still Open To My Heart
TTITLE9=I'll Hold You In My Heart
TTITLE10=Green, Green Grass of Home
TTITLE11=I'm So Lonesome I Could Cry
EXTD=
EXTT0=
EXTT1=
EXTT2=
EXTT3=
EXTT4=
EXTT5=
EXTT6=
EXTT7=
EXTT8=
EXTT9=
EXTT10=
EXTT11=
PLAYORDER=
